<mxfile host="" modified="2020-06-04T16:04:23.536Z" agent="5.0 (X11; Linux x86_64) AppleWebKit/537.36 (KHTML, like Gecko) Code/1.45.1 Chrome/78.0.3904.130 Electron/7.2.4 Safari/537.36" etag="j4qm-KrtVG9QySWSLlLr" version="13.1.3" pages="2">
    <diagram id="6hGFLwfOUW9BJ-s0fimq" name="框架">
        <mxGraphModel dx="1528" dy="935" grid="1" gridSize="10" guides="1" tooltips="1" connect="1" arrows="1" fold="1" page="1" pageScale="1" pageWidth="827" pageHeight="1169" math="0" shadow="0">
            <root>
                <mxCell id="0"/>
                <mxCell id="1" parent="0"/>
                <mxCell id="Nij1KV1mirMt0U8soaRk-3" style="edgeStyle=orthogonalEdgeStyle;rounded=0;orthogonalLoop=1;jettySize=auto;html=1;exitX=0;exitY=0.75;exitDx=0;exitDy=0;entryX=1;entryY=0.5;entryDx=0;entryDy=0;" parent="1" source="RXwC_I8cdIv8CvT90dta-1" target="RXwC_I8cdIv8CvT90dta-5" edge="1">
                    <mxGeometry relative="1" as="geometry"/>
                </mxCell>
                <mxCell id="Nij1KV1mirMt0U8soaRk-4" style="edgeStyle=orthogonalEdgeStyle;rounded=0;orthogonalLoop=1;jettySize=auto;html=1;exitX=0.25;exitY=1;exitDx=0;exitDy=0;entryX=0.583;entryY=0;entryDx=0;entryDy=0;entryPerimeter=0;" parent="1" source="RXwC_I8cdIv8CvT90dta-1" target="RXwC_I8cdIv8CvT90dta-2" edge="1">
                    <mxGeometry relative="1" as="geometry"/>
                </mxCell>
                <mxCell id="Nij1KV1mirMt0U8soaRk-5" style="edgeStyle=orthogonalEdgeStyle;rounded=0;orthogonalLoop=1;jettySize=auto;html=1;exitX=0.5;exitY=1;exitDx=0;exitDy=0;entryX=0.5;entryY=0;entryDx=0;entryDy=0;" parent="1" source="RXwC_I8cdIv8CvT90dta-1" target="Nij1KV1mirMt0U8soaRk-1" edge="1">
                    <mxGeometry relative="1" as="geometry"/>
                </mxCell>
                <mxCell id="Nij1KV1mirMt0U8soaRk-6" style="edgeStyle=orthogonalEdgeStyle;rounded=0;orthogonalLoop=1;jettySize=auto;html=1;exitX=0.75;exitY=1;exitDx=0;exitDy=0;" parent="1" source="RXwC_I8cdIv8CvT90dta-1" target="RXwC_I8cdIv8CvT90dta-4" edge="1">
                    <mxGeometry relative="1" as="geometry"/>
                </mxCell>
                <mxCell id="RXwC_I8cdIv8CvT90dta-1" value="hub" style="rounded=0;whiteSpace=wrap;html=1;" parent="1" vertex="1">
                    <mxGeometry x="354" y="45" width="120" height="50" as="geometry"/>
                </mxCell>
                <mxCell id="Nij1KV1mirMt0U8soaRk-1" value="github" style="rounded=0;whiteSpace=wrap;html=1;" parent="1" vertex="1">
                    <mxGeometry x="354" y="560" width="120" height="50" as="geometry"/>
                </mxCell>
                <mxCell id="RXwC_I8cdIv8CvT90dta-4" value="ui" style="rounded=0;whiteSpace=wrap;html=1;" parent="1" vertex="1">
                    <mxGeometry x="550" y="560" width="120" height="50" as="geometry"/>
                </mxCell>
                <mxCell id="RXwC_I8cdIv8CvT90dta-5" value="os&lt;br&gt;os/exec&lt;br&gt;syscall" style="rounded=0;whiteSpace=wrap;html=1;" parent="1" vertex="1">
                    <mxGeometry x="30" y="110" width="120" height="60" as="geometry"/>
                </mxCell>
                <mxCell id="Nij1KV1mirMt0U8soaRk-8" style="edgeStyle=orthogonalEdgeStyle;rounded=0;orthogonalLoop=1;jettySize=auto;html=1;exitX=0.75;exitY=1;exitDx=0;exitDy=0;entryX=0.25;entryY=0;entryDx=0;entryDy=0;" parent="1" source="RXwC_I8cdIv8CvT90dta-2" target="Nij1KV1mirMt0U8soaRk-1" edge="1">
                    <mxGeometry relative="1" as="geometry"/>
                </mxCell>
                <mxCell id="Nij1KV1mirMt0U8soaRk-9" style="edgeStyle=orthogonalEdgeStyle;rounded=0;orthogonalLoop=1;jettySize=auto;html=1;exitX=1;exitY=1;exitDx=0;exitDy=0;entryX=0.25;entryY=0;entryDx=0;entryDy=0;" parent="1" source="RXwC_I8cdIv8CvT90dta-2" target="RXwC_I8cdIv8CvT90dta-4" edge="1">
                    <mxGeometry relative="1" as="geometry">
                        <Array as="points">
                            <mxPoint x="260" y="285"/>
                            <mxPoint x="310" y="285"/>
                            <mxPoint x="310" y="390"/>
                            <mxPoint x="580" y="390"/>
                        </Array>
                    </mxGeometry>
                </mxCell>
                <mxCell id="RXwC_I8cdIv8CvT90dta-2" value="commands" style="rounded=0;whiteSpace=wrap;html=1;" parent="1" vertex="1">
                    <mxGeometry x="140" y="260" width="120" height="50" as="geometry"/>
                </mxCell>
                <mxCell id="Nij1KV1mirMt0U8soaRk-7" value="系统调用" style="text;html=1;resizable=0;autosize=1;align=center;verticalAlign=middle;points=[];fillColor=#008a00;strokeColor=#005700;rounded=0;fontColor=#ffffff;" parent="1" vertex="1">
                    <mxGeometry x="100" y="75" width="60" height="20" as="geometry"/>
                </mxCell>
            </root>
        </mxGraphModel>
    </diagram>
    <diagram id="yHGJgllQQKgUklg9XiMx" name="commands类图">
        <mxGraphModel dx="1528" dy="935" grid="1" gridSize="10" guides="1" tooltips="1" connect="1" arrows="1" fold="1" page="1" pageScale="1" pageWidth="827" pageHeight="1169" math="0" shadow="0">
            <root>
                <mxCell id="k-Jv3Hhr_tn20F8rWbvk-0"/>
                <mxCell id="k-Jv3Hhr_tn20F8rWbvk-1" parent="k-Jv3Hhr_tn20F8rWbvk-0"/>
                <mxCell id="dty_5Vca5Fe_XDXbMZKY-0" value="Command&#10;" style="swimlane;fontStyle=1;align=center;verticalAlign=top;childLayout=stackLayout;horizontal=1;startSize=26;horizontalStack=0;resizeParent=1;resizeParentMax=0;resizeLast=0;collapsible=1;marginBottom=0;" vertex="1" parent="k-Jv3Hhr_tn20F8rWbvk-1">
                    <mxGeometry x="100" y="420" width="160" height="86" as="geometry"/>
                </mxCell>
                <mxCell id="dty_5Vca5Fe_XDXbMZKY-1" value="+ field: type" style="text;strokeColor=none;fillColor=none;align=left;verticalAlign=top;spacingLeft=4;spacingRight=4;overflow=hidden;rotatable=0;points=[[0,0.5],[1,0.5]];portConstraint=eastwest;" vertex="1" parent="dty_5Vca5Fe_XDXbMZKY-0">
                    <mxGeometry y="26" width="160" height="26" as="geometry"/>
                </mxCell>
                <mxCell id="dty_5Vca5Fe_XDXbMZKY-2" value="" style="line;strokeWidth=1;fillColor=none;align=left;verticalAlign=middle;spacingTop=-1;spacingLeft=3;spacingRight=3;rotatable=0;labelPosition=right;points=[];portConstraint=eastwest;" vertex="1" parent="dty_5Vca5Fe_XDXbMZKY-0">
                    <mxGeometry y="52" width="160" height="8" as="geometry"/>
                </mxCell>
                <mxCell id="dty_5Vca5Fe_XDXbMZKY-3" value="+ method(type): type" style="text;strokeColor=none;fillColor=none;align=left;verticalAlign=top;spacingLeft=4;spacingRight=4;overflow=hidden;rotatable=0;points=[[0,0.5],[1,0.5]];portConstraint=eastwest;" vertex="1" parent="dty_5Vca5Fe_XDXbMZKY-0">
                    <mxGeometry y="60" width="160" height="26" as="geometry"/>
                </mxCell>
                <mxCell id="dty_5Vca5Fe_XDXbMZKY-8" value="Args" style="swimlane;fontStyle=1;align=center;verticalAlign=top;childLayout=stackLayout;horizontal=1;startSize=26;horizontalStack=0;resizeParent=1;resizeParentMax=0;resizeLast=0;collapsible=1;marginBottom=0;" vertex="1" parent="k-Jv3Hhr_tn20F8rWbvk-1">
                    <mxGeometry x="400" y="420" width="160" height="86" as="geometry"/>
                </mxCell>
                <mxCell id="dty_5Vca5Fe_XDXbMZKY-9" value="+ field: type" style="text;strokeColor=none;fillColor=none;align=left;verticalAlign=top;spacingLeft=4;spacingRight=4;overflow=hidden;rotatable=0;points=[[0,0.5],[1,0.5]];portConstraint=eastwest;" vertex="1" parent="dty_5Vca5Fe_XDXbMZKY-8">
                    <mxGeometry y="26" width="160" height="26" as="geometry"/>
                </mxCell>
                <mxCell id="dty_5Vca5Fe_XDXbMZKY-10" value="" style="line;strokeWidth=1;fillColor=none;align=left;verticalAlign=middle;spacingTop=-1;spacingLeft=3;spacingRight=3;rotatable=0;labelPosition=right;points=[];portConstraint=eastwest;" vertex="1" parent="dty_5Vca5Fe_XDXbMZKY-8">
                    <mxGeometry y="52" width="160" height="8" as="geometry"/>
                </mxCell>
                <mxCell id="dty_5Vca5Fe_XDXbMZKY-11" value="+ method(type): type" style="text;strokeColor=none;fillColor=none;align=left;verticalAlign=top;spacingLeft=4;spacingRight=4;overflow=hidden;rotatable=0;points=[[0,0.5],[1,0.5]];portConstraint=eastwest;" vertex="1" parent="dty_5Vca5Fe_XDXbMZKY-8">
                    <mxGeometry y="60" width="160" height="26" as="geometry"/>
                </mxCell>
                <mxCell id="dty_5Vca5Fe_XDXbMZKY-12" value="Runner" style="swimlane;fontStyle=1;align=center;verticalAlign=top;childLayout=stackLayout;horizontal=1;startSize=26;horizontalStack=0;resizeParent=1;resizeParentMax=0;resizeLast=0;collapsible=1;marginBottom=0;" vertex="1" parent="k-Jv3Hhr_tn20F8rWbvk-1">
                    <mxGeometry x="270" y="170" width="160" height="86" as="geometry"/>
                </mxCell>
                <mxCell id="dty_5Vca5Fe_XDXbMZKY-13" value="+ field: type" style="text;strokeColor=none;fillColor=none;align=left;verticalAlign=top;spacingLeft=4;spacingRight=4;overflow=hidden;rotatable=0;points=[[0,0.5],[1,0.5]];portConstraint=eastwest;" vertex="1" parent="dty_5Vca5Fe_XDXbMZKY-12">
                    <mxGeometry y="26" width="160" height="26" as="geometry"/>
                </mxCell>
                <mxCell id="dty_5Vca5Fe_XDXbMZKY-14" value="" style="line;strokeWidth=1;fillColor=none;align=left;verticalAlign=middle;spacingTop=-1;spacingLeft=3;spacingRight=3;rotatable=0;labelPosition=right;points=[];portConstraint=eastwest;" vertex="1" parent="dty_5Vca5Fe_XDXbMZKY-12">
                    <mxGeometry y="52" width="160" height="8" as="geometry"/>
                </mxCell>
                <mxCell id="dty_5Vca5Fe_XDXbMZKY-15" value="+ method(type): type" style="text;strokeColor=none;fillColor=none;align=left;verticalAlign=top;spacingLeft=4;spacingRight=4;overflow=hidden;rotatable=0;points=[[0,0.5],[1,0.5]];portConstraint=eastwest;" vertex="1" parent="dty_5Vca5Fe_XDXbMZKY-12">
                    <mxGeometry y="60" width="160" height="26" as="geometry"/>
                </mxCell>
                <mxCell id="dty_5Vca5Fe_XDXbMZKY-16" value="Cmd&#10;" style="swimlane;fontStyle=1;align=center;verticalAlign=top;childLayout=stackLayout;horizontal=1;startSize=26;horizontalStack=0;resizeParent=1;resizeParentMax=0;resizeLast=0;collapsible=1;marginBottom=0;" vertex="1" parent="k-Jv3Hhr_tn20F8rWbvk-1">
                    <mxGeometry x="630" y="310" width="160" height="86" as="geometry"/>
                </mxCell>
                <mxCell id="dty_5Vca5Fe_XDXbMZKY-17" value="+ field: type" style="text;strokeColor=none;fillColor=none;align=left;verticalAlign=top;spacingLeft=4;spacingRight=4;overflow=hidden;rotatable=0;points=[[0,0.5],[1,0.5]];portConstraint=eastwest;" vertex="1" parent="dty_5Vca5Fe_XDXbMZKY-16">
                    <mxGeometry y="26" width="160" height="26" as="geometry"/>
                </mxCell>
                <mxCell id="dty_5Vca5Fe_XDXbMZKY-18" value="" style="line;strokeWidth=1;fillColor=none;align=left;verticalAlign=middle;spacingTop=-1;spacingLeft=3;spacingRight=3;rotatable=0;labelPosition=right;points=[];portConstraint=eastwest;" vertex="1" parent="dty_5Vca5Fe_XDXbMZKY-16">
                    <mxGeometry y="52" width="160" height="8" as="geometry"/>
                </mxCell>
                <mxCell id="dty_5Vca5Fe_XDXbMZKY-19" value="+ method(type): type" style="text;strokeColor=none;fillColor=none;align=left;verticalAlign=top;spacingLeft=4;spacingRight=4;overflow=hidden;rotatable=0;points=[[0,0.5],[1,0.5]];portConstraint=eastwest;" vertex="1" parent="dty_5Vca5Fe_XDXbMZKY-16">
                    <mxGeometry y="60" width="160" height="26" as="geometry"/>
                </mxCell>
            </root>
        </mxGraphModel>
    </diagram>
</mxfile>